<svg width="70" height="70" viewBox="0 0 70 70" fill="none" xmlns="http://www.w3.org/2000/svg">
<g clip-path="url(#clip0_1_623)">
<path d="M70 35C70 15.6701 54.3299 0 35 0C15.6701 0 0 15.6701 0 35C0 54.3299 15.6701 70 35 70C54.3299 70 70 54.3299 70 35Z" fill="#D9D9D9"/>
<mask id="path-2-outside-1_1_623" maskUnits="userSpaceOnUse" x="21.1948" y="16.1403" width="27" height="36" fill="black">
<rect fill="white" x="21.1948" y="16.1403" width="27" height="36"/>
<path fill-rule="evenodd" clip-rule="evenodd" d="M23.3107 43.016L23.84 42.5956C24.3078 42.2242 24.645 41.955 24.854 41.7865C24.9608 41.7004 25.0258 41.6472 25.057 41.621C25.0596 41.6188 25.0617 41.617 25.0636 41.6155C25.0529 41.6249 25.0316 41.6441 25.0081 41.6676C24.9979 41.6778 24.9787 41.6972 24.9558 41.723C24.9408 41.7397 24.8858 41.8014 24.8281 41.8897C24.8019 41.93 24.738 42.0312 24.6859 42.174C24.6545 42.2598 24.5 42.6856 24.7065 43.1869C24.7621 43.3221 24.8316 43.4369 24.9093 43.5341C24.8459 43.5846 24.7796 43.6371 24.7107 43.692V48.9371H45.4433V43.1964H34.2923C34.8957 42.7318 35.4784 42.2651 36.0405 41.7964C38.3761 39.8483 40.354 37.8645 41.9741 35.845C43.984 33.3119 44.989 30.5723 44.989 27.6263C44.989 24.928 44.1492 22.7391 42.4697 21.0596C40.8177 19.38 38.3535 18.5403 35.077 18.5403C33.1772 18.5403 31.4426 18.912 29.8732 19.6554C28.3313 20.3988 27.0786 21.5552 26.1149 23.1246C25.372 24.37 24.9065 25.8582 24.7185 27.5892C24.6696 28.0394 24.6394 28.5061 24.6281 28.9892H31.4426C31.4426 27.5574 31.7317 26.4561 32.3099 25.6852C32.9156 24.8867 33.7416 24.4875 34.7879 24.4875C35.8342 24.4875 36.6189 24.8041 37.142 25.4374C37.6651 26.0706 37.9267 26.9517 37.9267 28.0806C37.9267 29.5674 37.3898 31.0955 36.316 32.6649C35.2422 34.2343 33.9206 35.7348 32.3512 37.1666C31.0228 38.4001 29.2652 39.9299 27.0784 41.7561C26.727 42.0495 26.3646 42.3507 25.991 42.6595C26.0036 42.6511 26.0044 42.652 25.9932 42.6621C25.9931 42.6623 25.9933 42.662 25.9932 42.6621C25.9836 42.6709 25.9651 42.6868 25.9383 42.709L25.099 41.5803C27.7882 39.3577 29.885 37.5461 31.3986 36.1406L31.403 36.1364L31.4077 36.1323C32.9064 34.765 34.1544 33.3448 35.1606 31.8743C36.1194 30.473 36.5267 29.2158 36.5267 28.0806C36.5267 27.156 36.3126 26.6316 36.0627 26.329C35.8754 26.1023 35.5404 25.8875 34.7879 25.8875C34.1586 25.8875 33.7549 26.0983 33.4276 26.5282C33.1014 26.965 32.8426 27.7229 32.8426 28.9892V30.3892H23.1948L23.2284 28.9563C23.2877 26.4409 23.8227 24.2344 24.9125 22.4073L24.9171 22.3996L24.9218 22.392C26.0147 20.6121 27.4632 19.2631 29.2652 18.3943L29.2738 18.3901C31.0476 17.5499 32.9897 17.1403 35.077 17.1403C38.5768 17.1403 41.4597 18.0389 43.4638 20.0737C45.4395 22.0517 46.389 24.6137 46.389 27.6263C46.389 30.9196 45.2567 33.9603 43.0708 36.7151L43.0662 36.721C41.6803 38.4485 40.0522 40.1398 38.1869 41.7964H46.8433V50.3371H23.3107V43.016ZM25.0707 41.6093C25.0709 41.6091 25.0687 41.6111 25.0636 41.6155C25.0679 41.6116 25.0704 41.6095 25.0707 41.6093Z"/>
</mask>
<path fill-rule="evenodd" clip-rule="evenodd" d="M23.3107 43.016L23.84 42.5956C24.3078 42.2242 24.645 41.955 24.854 41.7865C24.9608 41.7004 25.0258 41.6472 25.057 41.621C25.0596 41.6188 25.0617 41.617 25.0636 41.6155C25.0529 41.6249 25.0316 41.6441 25.0081 41.6676C24.9979 41.6778 24.9787 41.6972 24.9558 41.723C24.9408 41.7397 24.8858 41.8014 24.8281 41.8897C24.8019 41.93 24.738 42.0312 24.6859 42.174C24.6545 42.2598 24.5 42.6856 24.7065 43.1869C24.7621 43.3221 24.8316 43.4369 24.9093 43.5341C24.8459 43.5846 24.7796 43.6371 24.7107 43.692V48.9371H45.4433V43.1964H34.2923C34.8957 42.7318 35.4784 42.2651 36.0405 41.7964C38.3761 39.8483 40.354 37.8645 41.9741 35.845C43.984 33.3119 44.989 30.5723 44.989 27.6263C44.989 24.928 44.1492 22.7391 42.4697 21.0596C40.8177 19.38 38.3535 18.5403 35.077 18.5403C33.1772 18.5403 31.4426 18.912 29.8732 19.6554C28.3313 20.3988 27.0786 21.5552 26.1149 23.1246C25.372 24.37 24.9065 25.8582 24.7185 27.5892C24.6696 28.0394 24.6394 28.5061 24.6281 28.9892H31.4426C31.4426 27.5574 31.7317 26.4561 32.3099 25.6852C32.9156 24.8867 33.7416 24.4875 34.7879 24.4875C35.8342 24.4875 36.6189 24.8041 37.142 25.4374C37.6651 26.0706 37.9267 26.9517 37.9267 28.0806C37.9267 29.5674 37.3898 31.0955 36.316 32.6649C35.2422 34.2343 33.9206 35.7348 32.3512 37.1666C31.0228 38.4001 29.2652 39.9299 27.0784 41.7561C26.727 42.0495 26.3646 42.3507 25.991 42.6595C26.0036 42.6511 26.0044 42.652 25.9932 42.6621C25.9931 42.6623 25.9933 42.662 25.9932 42.6621C25.9836 42.6709 25.9651 42.6868 25.9383 42.709L25.099 41.5803C27.7882 39.3577 29.885 37.5461 31.3986 36.1406L31.403 36.1364L31.4077 36.1323C32.9064 34.765 34.1544 33.3448 35.1606 31.8743C36.1194 30.473 36.5267 29.2158 36.5267 28.0806C36.5267 27.156 36.3126 26.6316 36.0627 26.329C35.8754 26.1023 35.5404 25.8875 34.7879 25.8875C34.1586 25.8875 33.7549 26.0983 33.4276 26.5282C33.1014 26.965 32.8426 27.7229 32.8426 28.9892V30.3892H23.1948L23.2284 28.9563C23.2877 26.4409 23.8227 24.2344 24.9125 22.4073L24.9171 22.3996L24.9218 22.392C26.0147 20.6121 27.4632 19.2631 29.2652 18.3943L29.2738 18.3901C31.0476 17.5499 32.9897 17.1403 35.077 17.1403C38.5768 17.1403 41.4597 18.0389 43.4638 20.0737C45.4395 22.0517 46.389 24.6137 46.389 27.6263C46.389 30.9196 45.2567 33.9603 43.0708 36.7151L43.0662 36.721C41.6803 38.4485 40.0522 40.1398 38.1869 41.7964H46.8433V50.3371H23.3107V43.016ZM25.0707 41.6093C25.0709 41.6091 25.0687 41.6111 25.0636 41.6155C25.0679 41.6116 25.0704 41.6095 25.0707 41.6093Z" fill="#FF0716"/>
<path d="M23.3107 43.016L22.6888 42.2329L22.3107 42.5331V43.016H23.3107ZM23.84 42.5956L23.2182 41.8125L23.2182 41.8125L23.84 42.5956ZM24.854 41.7865L24.2264 41.0079L24.2261 41.0082L24.854 41.7865ZM25.057 41.621L24.4148 40.8545L24.4136 40.8555L25.057 41.621ZM25.0081 41.6676L24.3021 40.9594L24.301 40.9605L25.0081 41.6676ZM24.9558 41.723L25.7008 42.3901L25.7023 42.3884L24.9558 41.723ZM24.8281 41.8897L25.6658 42.436L25.6658 42.436L24.8281 41.8897ZM24.6859 42.174L25.6252 42.5172L25.6254 42.5166L24.6859 42.174ZM24.7065 43.1869L25.6312 42.8064L25.6311 42.8061L24.7065 43.1869ZM24.9093 43.5341L25.532 44.3166L26.3161 43.6926L25.6905 42.9098L24.9093 43.5341ZM24.7107 43.692L24.0884 42.9092L23.7107 43.2094V43.692H24.7107ZM24.7107 48.9371H23.7107V49.9371H24.7107V48.9371ZM45.4433 48.9371V49.9371H46.4433V48.9371H45.4433ZM45.4433 43.1964H46.4433V42.1964H45.4433V43.1964ZM34.2923 43.1964L33.6822 42.404L31.3543 44.1964H34.2923V43.1964ZM36.0405 41.7964L36.6809 42.5643L36.681 42.5643L36.0405 41.7964ZM41.9741 35.845L42.7541 36.4707L42.7574 36.4665L41.9741 35.845ZM42.4697 21.0596L41.7567 21.7608L41.7626 21.7667L42.4697 21.0596ZM29.8732 19.6554L29.4451 18.7516L29.4389 18.7546L29.8732 19.6554ZM26.1149 23.1246L25.2626 22.6012L25.2561 22.6123L26.1149 23.1246ZM24.7185 27.5892L23.7243 27.4811L23.7243 27.4813L24.7185 27.5892ZM24.6281 28.9892L23.6284 28.9657L23.6043 29.9892H24.6281V28.9892ZM31.4426 28.9892V29.9892H32.4426V28.9892H31.4426ZM32.3099 25.6852L31.5132 25.0808L31.5099 25.0851L32.3099 25.6852ZM32.3512 37.1666L31.6772 36.4278L31.6707 36.4338L32.3512 37.1666ZM27.0784 41.7561L27.7194 42.5237L27.7194 42.5237L27.0784 41.7561ZM25.991 42.6595L25.3539 41.8886L26.5457 43.4915L25.991 42.6595ZM25.9383 42.709L25.1358 43.3057L25.7653 44.1524L26.5771 43.4784L25.9383 42.709ZM25.099 41.5803L24.462 40.8095L23.7298 41.4147L24.2966 42.177L25.099 41.5803ZM31.3986 36.1406L32.079 36.8734L32.0822 36.8704L31.3986 36.1406ZM31.403 36.1364L30.7365 35.391L30.7278 35.3987L30.7194 35.4067L31.403 36.1364ZM31.4077 36.1323L32.0743 36.8778L32.0816 36.8711L31.4077 36.1323ZM35.1606 31.8743L34.3353 31.3096L34.3353 31.3096L35.1606 31.8743ZM36.0627 26.329L35.2916 26.9658L35.2917 26.9659L36.0627 26.329ZM33.4276 26.5282L32.6319 25.9225L32.6263 25.9299L33.4276 26.5282ZM32.8426 30.3892V31.3892H33.8426V30.3892H32.8426ZM23.1948 30.3892L22.195 30.3657L22.171 31.3892H23.1948V30.3892ZM23.2284 28.9563L22.2287 28.9327L22.2287 28.9328L23.2284 28.9563ZM24.9125 22.4073L24.0551 21.8926L24.0537 21.8951L24.9125 22.4073ZM24.9171 22.3996L24.0651 21.876L24.0597 21.8849L24.9171 22.3996ZM24.9218 22.392L25.7737 22.9156L25.774 22.9153L24.9218 22.392ZM29.2652 18.3943L29.6995 19.2951L29.7007 19.2945L29.2652 18.3943ZM29.2738 18.3901L28.8457 17.4863L28.8383 17.4899L29.2738 18.3901ZM43.4638 20.0737L42.7513 20.7755L42.7562 20.7805L43.4638 20.0737ZM43.0708 36.7151L42.2874 36.0935L42.2844 36.0973L43.0708 36.7151ZM43.0662 36.721L43.8462 37.3468L43.8525 37.3388L43.0662 36.721ZM38.1869 41.7964L37.5228 41.0487L35.5549 42.7964H38.1869V41.7964ZM46.8433 41.7964H47.8433V40.7964H46.8433V41.7964ZM46.8433 50.3371V51.3371H47.8433V50.3371H46.8433ZM23.3107 50.3371H22.3107V51.3371H23.3107V50.3371ZM25.0707 41.6093L25.5179 42.5037L25.6631 42.4312L25.7778 42.3164L25.0707 41.6093ZM23.9326 43.7991L24.4619 43.3787L23.2182 41.8125L22.6888 42.2329L23.9326 43.7991ZM24.4619 43.3787C24.9299 43.0071 25.2697 42.736 25.4818 42.5648L24.2261 41.0082C24.0204 41.1741 23.6857 41.4412 23.2182 41.8125L24.4619 43.3787ZM25.4815 42.5651C25.5882 42.479 25.6605 42.42 25.7004 42.3865L24.4136 40.8555C24.3911 40.8743 24.3333 40.9217 24.2264 41.0079L25.4815 42.5651ZM25.6992 42.3875C25.7017 42.3855 25.7056 42.3822 25.7095 42.3789L24.4176 40.8521C24.4179 40.8519 24.4175 40.8522 24.4148 40.8545L25.6992 42.3875ZM24.4023 40.8654C24.3808 40.8843 24.3438 40.9178 24.3021 40.9594L25.7142 42.3757C25.7163 42.3736 25.7189 42.3711 25.7216 42.3686C25.7242 42.3661 25.7257 42.3649 25.7248 42.3656L24.4023 40.8654ZM24.301 40.9605C24.2833 40.9782 24.2495 41.0124 24.2092 41.0576L25.7023 42.3884C25.7079 42.3821 25.7125 42.3773 25.7152 42.3747L24.301 40.9605ZM24.2108 41.0559C24.1825 41.0875 24.0888 41.1928 23.9905 41.3435L25.6658 42.436C25.6736 42.424 25.682 42.4127 25.689 42.404C25.6952 42.3962 25.6988 42.3922 25.7008 42.3901L24.2108 41.0559ZM23.9905 41.3435C23.9451 41.4132 23.8356 41.5868 23.7464 41.8314L25.6254 42.5166C25.6403 42.4757 25.6587 42.4468 25.6658 42.436L23.9905 41.3435ZM23.7466 41.8308C23.693 41.9777 23.4277 42.7079 23.7818 43.5678L25.6311 42.8061C25.5723 42.6632 25.6161 42.542 25.6252 42.5172L23.7466 41.8308ZM23.7817 43.5674C23.8737 43.7909 23.9917 43.9876 24.1281 44.1584L25.6905 42.9098C25.6716 42.8861 25.6506 42.8534 25.6312 42.8064L23.7817 43.5674ZM24.2867 42.7516C24.2231 42.8022 24.159 42.853 24.0884 42.9092L25.333 44.4748C25.4002 44.4213 25.4687 44.3669 25.532 44.3166L24.2867 42.7516ZM23.7107 43.692V48.9371H25.7107V43.692H23.7107ZM24.7107 49.9371H45.4433V47.9371H24.7107V49.9371ZM46.4433 48.9371V43.1964H44.4433V48.9371H46.4433ZM45.4433 42.1964H34.2923V44.1964H45.4433V42.1964ZM34.9024 43.9887C35.5156 43.5165 36.1085 43.0417 36.6809 42.5643L35.4 41.0284C34.8483 41.4885 34.2757 41.947 33.6822 42.404L34.9024 43.9887ZM36.681 42.5643C39.0591 40.5808 41.0859 38.5503 42.7541 36.4707L41.194 35.2192C39.6221 37.1788 37.6931 39.1158 35.4 41.0284L36.681 42.5643ZM42.7574 36.4665C44.8931 33.775 45.989 30.8204 45.989 27.6263H43.989C43.989 30.3243 43.0749 32.8487 41.1907 35.2234L42.7574 36.4665ZM45.989 27.6263C45.989 24.702 45.0699 22.2455 43.1768 20.3525L41.7626 21.7667C43.2285 23.2326 43.989 25.1539 43.989 27.6263H45.989ZM43.1826 20.3583C41.279 18.423 38.5147 17.5403 35.077 17.5403V19.5403C38.1922 19.5403 40.3564 20.3371 41.7568 21.7608L43.1826 20.3583ZM35.077 17.5403C33.0432 17.5403 31.1605 17.9391 29.4451 18.7516L30.3013 20.5591C31.7247 19.8849 33.3111 19.5403 35.077 19.5403V17.5403ZM29.4389 18.7546C27.7112 19.5876 26.3187 20.8816 25.2627 22.6013L26.967 23.6478C27.8384 22.2287 28.9514 21.21 30.3075 20.5561L29.4389 18.7546ZM25.2561 22.6123C24.4262 24.0034 23.9249 25.6355 23.7243 27.4811L25.7126 27.6972C25.8882 26.0809 26.3177 24.7366 26.9737 23.6368L25.2561 22.6123ZM23.7243 27.4813C23.6722 27.9613 23.6403 28.4562 23.6284 28.9657L25.6278 29.0126C25.6385 28.556 25.667 28.1175 25.7126 27.697L23.7243 27.4813ZM24.6281 29.9892H31.4426V27.9892H24.6281V29.9892ZM32.4426 28.9892C32.4426 27.6735 32.711 26.817 33.1099 26.2852L31.5099 25.0851C30.7524 26.0951 30.4426 27.4414 30.4426 28.9892H32.4426ZM33.1066 26.2895C33.5137 25.7528 34.0383 25.4875 34.7879 25.4875V23.4875C33.4449 23.4875 32.3175 24.0205 31.5132 25.0808L33.1066 26.2895ZM34.7879 25.4875C35.6244 25.4875 36.0878 25.7314 36.371 26.0742L37.913 24.8005C37.1499 23.8767 36.044 23.4875 34.7879 23.4875V25.4875ZM36.371 26.0742C36.699 26.4713 36.9267 27.0976 36.9267 28.0806H38.9267C38.9267 26.8057 38.6312 25.67 37.913 24.8005L36.371 26.0742ZM36.9267 28.0806C36.9267 29.3162 36.4823 30.6508 35.4907 32.1002L37.1413 33.2295C38.2972 31.5401 38.9267 29.8185 38.9267 28.0806H36.9267ZM35.4907 32.1002C34.4652 33.599 33.1962 35.0421 31.6772 36.4278L33.0251 37.9053C34.645 36.4276 36.0192 34.8695 37.1413 33.2295L35.4907 32.1002ZM31.6707 36.4338C30.3603 37.6507 28.6174 39.1681 26.4375 40.9885L27.7194 42.5237C29.913 40.6918 31.6853 39.1495 33.0316 37.8993L31.6707 36.4338ZM26.4375 40.9885C26.0874 41.2809 25.7262 41.5809 25.3539 41.8886L26.6281 43.4303C27.0029 43.1204 27.3667 42.8182 27.7194 42.5237L26.4375 40.9885ZM26.5457 43.4915C26.5436 43.4929 26.5204 43.5086 26.4876 43.5269C26.4772 43.5328 26.4273 43.5611 26.3586 43.5875C26.331 43.5981 26.241 43.6322 26.1195 43.6467C26.0787 43.6516 25.5923 43.7202 25.2366 43.2986C24.8632 42.856 25.0411 42.3689 25.059 42.3186C25.1027 42.1959 25.1606 42.1114 25.1776 42.0867C25.221 42.0239 25.262 41.9806 25.2701 41.972C25.2963 41.9441 25.3176 41.9249 25.3194 41.9232L26.6671 43.401C26.6744 43.3943 26.6998 43.3712 26.7286 43.3405C26.738 43.3305 26.78 43.2861 26.8238 43.2225C26.8411 43.1974 26.8992 43.1126 26.943 42.9897C26.961 42.9391 27.1389 42.4518 26.7654 42.0091C26.4096 41.5873 25.923 41.6559 25.882 41.6608C25.7601 41.6754 25.6698 41.7096 25.6417 41.7204C25.5721 41.7471 25.5209 41.7761 25.5088 41.7829C25.4727 41.8031 25.4446 41.8218 25.4363 41.8274L26.5457 43.4915ZM25.2861 41.955C25.2861 41.955 25.2861 41.9551 25.2861 41.9551C25.2861 41.9551 25.2861 41.9551 25.2861 41.9551H25.2861C25.2861 41.9551 25.2861 43.3693 26.7003 43.3693C26.7003 43.3693 26.7003 43.3693 26.7003 43.3693C26.7003 43.3693 26.7003 43.3693 26.7003 43.3693C26.7003 43.3693 26.7003 43.3693 26.7003 43.3693C26.7003 43.3693 26.7003 43.3693 26.7003 43.3693C26.7003 43.3693 26.7003 43.3693 26.7003 43.3693C26.7003 43.3693 26.7003 43.3693 26.7003 43.3693C26.7003 43.3693 26.7003 43.3693 26.7003 43.3693C26.7003 43.3693 26.7003 43.3693 26.7003 43.3693L26.7003 43.3693C26.7003 43.3692 26.7003 43.3693 26.7003 43.3693C26.7003 43.3693 26.7003 43.3693 26.7003 43.3692C26.7003 43.3692 26.7003 43.3692 26.7003 43.3692C26.7003 43.3692 26.7003 43.3692 26.7003 43.3692C26.7003 43.3692 26.7003 43.3692 26.7003 43.3692C26.7003 43.3692 26.7003 43.3692 26.7003 43.3692C26.7003 43.3692 26.7003 43.3692 26.7003 43.3692H26.7003C26.7003 43.3692 26.7003 43.3692 26.7003 43.3692C26.7003 43.3692 26.7003 43.3692 26.7003 43.3692C26.7003 43.3692 26.7003 43.3692 26.7003 43.3692C26.7003 43.3692 26.7003 43.3692 26.7003 43.3692C26.7003 43.3692 26.7003 43.3692 26.7003 43.3692C26.7003 43.3692 26.7003 43.3692 26.7003 43.3692C26.7003 43.3692 26.7003 43.3692 26.7003 43.3692C26.7003 43.3692 26.7004 41.955 25.2861 41.955C25.2861 41.955 25.2861 41.955 25.2861 41.955C25.2861 41.955 25.2861 41.955 25.2861 41.955C25.2861 41.955 25.2861 41.955 25.2861 41.955C25.2861 41.955 25.2861 41.955 25.2861 41.955C25.2861 41.955 25.2861 41.955 25.2861 41.955C25.2861 41.955 25.2861 41.955 25.2861 41.955C25.2861 41.955 25.2861 41.955 25.2861 41.955L26.7003 43.3692C26.7003 43.3692 26.7003 43.3692 26.7003 43.3692C26.7003 43.3692 26.7003 43.3692 26.7003 43.3692C26.7003 43.3692 26.7003 43.3692 26.7003 43.3692C26.7003 43.3692 26.7003 43.3692 26.7003 43.3692C25.2861 43.3692 25.2861 41.955 25.2861 41.955C25.2861 41.955 25.2861 41.955 25.2861 41.955C25.2861 41.955 25.2861 41.955 25.2861 41.955C25.2861 41.955 25.2861 41.955 25.2861 41.955C25.2861 41.955 25.2861 41.955 25.2861 41.955C25.2861 41.955 25.2861 41.955 25.2861 41.955C25.2861 41.955 25.2861 41.955 25.2861 41.955C25.2861 41.9551 25.2861 41.955 25.2861 41.9551C25.2861 41.9551 25.2861 41.9551 25.2861 41.9551C25.2861 41.9551 25.2861 41.9551 25.2861 41.9551C25.2861 41.9551 25.2861 41.9551 25.2861 41.9551C25.2861 41.9551 25.2861 41.9551 25.2861 41.9551C25.2861 41.9551 25.2861 41.9551 25.2861 41.9551C26.7003 41.9551 26.7003 43.3693 26.7003 43.3693H26.7003C26.7003 43.3693 26.7003 43.3693 26.7003 43.3693C26.7003 43.3693 26.7003 43.3693 26.7003 43.3693C26.7003 43.3692 26.7003 43.3693 26.7003 43.3692L25.2861 41.955ZM25.319 41.9236C25.3213 41.9215 25.3231 41.9199 25.3241 41.919C25.3251 41.9181 25.3257 41.9175 25.3259 41.9174C25.326 41.9173 25.325 41.9181 25.3227 41.9201C25.3181 41.9241 25.3104 41.9305 25.2995 41.9396L26.5771 43.4784C26.6041 43.456 26.6387 43.4269 26.6675 43.4006L25.319 41.9236ZM26.7408 42.1123L25.9015 40.9837L24.2966 42.177L25.1358 43.3057L26.7408 42.1123ZM25.7361 42.3511C28.4318 40.1231 30.5452 38.2977 32.079 36.8734L30.7181 35.4079C29.2248 36.7945 27.1446 38.5923 24.462 40.8095L25.7361 42.3511ZM32.0822 36.8704L32.0867 36.8662L30.7194 35.4067L30.7149 35.4109L32.0822 36.8704ZM32.0696 36.8819L32.0742 36.8777L30.7411 35.3869L30.7365 35.391L32.0696 36.8819ZM32.0816 36.8711C33.6308 35.4577 34.9314 33.9801 35.9859 32.439L34.3353 31.3096C33.3774 32.7096 32.182 34.0723 30.7337 35.3935L32.0816 36.8711ZM35.9859 32.439C37.027 30.9174 37.5267 29.4667 37.5267 28.0806H35.5267C35.5267 28.965 35.2117 30.0287 34.3353 31.3096L35.9859 32.439ZM37.5267 28.0806C37.5267 27.0084 37.2779 26.23 36.8336 25.6922L35.2917 26.9659C35.3473 27.0332 35.5267 27.3036 35.5267 28.0806H37.5267ZM36.8337 25.6922C36.4095 25.1786 35.7561 24.8875 34.7879 24.8875V26.8875C35.0726 26.8875 35.2091 26.9286 35.2597 26.9492C35.2722 26.9543 35.2802 26.9585 35.2847 26.9609C35.289 26.9634 35.2909 26.9648 35.291 26.9649C35.2912 26.965 35.2908 26.9647 35.2903 26.9643C35.2899 26.9638 35.2902 26.9641 35.2916 26.9658L36.8337 25.6922ZM34.7879 24.8875C34.3604 24.8875 33.9461 24.9595 33.5597 25.1461C33.1702 25.3341 32.8709 25.6086 32.6319 25.9225L34.2232 27.134C34.3116 27.0179 34.3777 26.972 34.4292 26.9472C34.4839 26.9208 34.5861 26.8875 34.7879 26.8875V24.8875ZM32.6263 25.9299C32.1224 26.6048 31.8426 27.6063 31.8426 28.9892H33.8426C33.8426 27.8395 34.0805 27.3252 34.2288 27.1266L32.6263 25.9299ZM31.8426 28.9892V30.3892H33.8426V28.9892H31.8426ZM32.8426 29.3892H23.1948V31.3892H32.8426V29.3892ZM24.1945 30.4126L24.2282 28.9797L22.2287 28.9328L22.195 30.3657L24.1945 30.4126ZM24.2282 28.9798C24.2844 26.5893 24.7914 24.5626 25.7713 22.9196L24.0537 21.8951C22.8541 23.9062 22.2909 26.2926 22.2287 28.9327L24.2282 28.9798ZM25.7699 22.922L25.7745 22.9143L24.0597 21.8849L24.0551 21.8926L25.7699 22.922ZM25.7691 22.9233L25.7737 22.9156L24.0699 21.8684L24.0652 21.876L25.7691 22.9233ZM25.774 22.9153C26.7746 21.2857 28.0833 20.0743 29.6995 19.2951L28.8309 17.4935C26.8431 18.4519 25.2548 19.9386 24.0696 21.8687L25.774 22.9153ZM29.7007 19.2945L29.7094 19.2903L28.8383 17.4899L28.8296 17.4941L29.7007 19.2945ZM29.7019 19.2938C31.3297 18.5228 33.1236 18.1403 35.077 18.1403V16.1403C32.8557 16.1403 30.7656 16.577 28.8458 17.4864L29.7019 19.2938ZM35.077 18.1403C38.4163 18.1403 40.9991 18.9964 42.7513 20.7755L44.1762 19.372C41.9202 17.0815 38.7372 16.1403 35.077 16.1403V18.1403ZM42.7562 20.7805C44.5185 22.5447 45.389 24.8392 45.389 27.6263H47.389C47.389 24.3883 46.3605 21.5588 44.1713 19.367L42.7562 20.7805ZM45.389 27.6263C45.389 30.6715 44.3477 33.4971 42.2874 36.0935L43.8541 37.3367C46.1658 34.4235 47.389 31.1678 47.389 27.6263H45.389ZM42.2844 36.0973L42.2798 36.1032L43.8525 37.3388L43.8571 37.3329L42.2844 36.0973ZM42.2861 36.0953C40.9399 37.7734 39.3518 39.4243 37.5228 41.0487L38.8509 42.5441C40.7525 40.8553 42.4207 39.1237 43.8462 37.3468L42.2861 36.0953ZM38.1869 42.7964H46.8433V40.7964H38.1869V42.7964ZM45.8433 41.7964V50.3371H47.8433V41.7964H45.8433ZM46.8433 49.3371H23.3107V51.3371H46.8433V49.3371ZM24.3107 50.3371V43.016H22.3107V50.3371H24.3107ZM25.7778 42.3164C25.7808 42.3134 25.787 42.3072 25.7945 42.2993C25.7977 42.2959 25.8195 42.2733 25.8447 42.2426C25.8506 42.2352 25.8942 42.1831 25.937 42.1089C25.9494 42.0873 26.0215 41.9661 26.0538 41.7923C26.0675 41.6899 26.0542 41.4283 26.013 41.2746C25.9208 41.0826 25.6308 40.7809 25.4475 40.683C25.3045 40.637 25.0591 40.6094 24.9622 40.6152C24.8994 40.6241 24.7954 40.648 24.7539 40.6608C24.6747 40.6873 24.6167 40.718 24.5954 40.7295C24.5464 40.7559 24.5106 40.7808 24.501 40.7874C24.4749 40.8055 24.4554 40.821 24.4512 40.8243C24.4436 40.8303 24.4376 40.8352 24.4345 40.8377C24.4282 40.8429 24.4234 40.8471 24.4216 40.8486C24.4176 40.852 24.4144 40.8548 24.4138 40.8553C24.4128 40.8562 24.4119 40.857 24.4117 40.8572C24.4102 40.8585 24.4115 40.8574 24.4118 40.857C24.4134 40.8557 24.4146 40.8547 24.4153 40.854L25.7118 42.3769C25.7177 42.3719 25.7226 42.3677 25.7264 42.3643C25.728 42.363 25.7301 42.3611 25.7291 42.3619C25.729 42.362 25.7283 42.3627 25.7273 42.3636C25.7268 42.364 25.7237 42.3667 25.7197 42.3701C25.718 42.3716 25.7131 42.3757 25.7068 42.3809C25.7037 42.3834 25.6978 42.3883 25.6902 42.3943C25.686 42.3976 25.6665 42.4131 25.6404 42.4312C25.6308 42.4378 25.595 42.4627 25.546 42.4891C25.5247 42.5006 25.4667 42.5313 25.3875 42.5578C25.346 42.5706 25.242 42.5945 25.1792 42.6034C25.0823 42.6092 24.8369 42.5816 24.6939 42.5356C24.5106 42.4377 24.2206 42.136 24.1284 41.944C24.0872 41.7903 24.074 41.5287 24.0876 41.4263C24.12 41.2525 24.192 41.1313 24.2044 41.1098C24.2472 41.0355 24.2908 40.9834 24.2968 40.976C24.3219 40.9453 24.3437 40.9227 24.3469 40.9193C24.3544 40.9114 24.3606 40.9052 24.3636 40.9022L25.7778 42.3164ZM25.7272 42.3636C25.7279 42.3629 25.7257 42.3649 25.7217 42.3683C25.7203 42.3695 25.7144 42.3746 25.7064 42.3812C25.703 42.384 25.6934 42.3919 25.6808 42.4017C25.6747 42.4063 25.6621 42.4159 25.6456 42.4275C25.6372 42.4334 25.6238 42.4427 25.6069 42.4534C25.5928 42.4624 25.5608 42.4823 25.5179 42.5037L24.6235 40.7149C24.552 40.7506 24.5002 40.788 24.4956 40.7912C24.4791 40.8028 24.4663 40.8126 24.4602 40.8173C24.4473 40.8272 24.4375 40.8353 24.4338 40.8384C24.4251 40.8455 24.4182 40.8515 24.4156 40.8537C24.4092 40.8592 24.4035 40.8642 24.3999 40.8674L25.7272 42.3636Z" fill="black" mask="url(#path-2-outside-1_1_623)"/>
</g>
<defs>
<clipPath id="clip0_1_623">
<rect width="70" height="70" fill="white"/>
</clipPath>
</defs>
</svg>
