<svg width="70" height="70" viewBox="0 0 70 70" fill="none" xmlns="http://www.w3.org/2000/svg">
<g clip-path="url(#clip0_1_620)">
<path d="M70 35C70 15.6701 54.3299 0 35 0C15.6701 0 0 15.6701 0 35C0 54.3299 15.6701 70 35 70C54.3299 70 70 54.3299 70 35Z" fill="#D9D9D9"/>
<path d="M26.1431 19.4671C23.8504 21.4819 22.7326 24.2931 22.6076 27.6378C22.6076 27.6378 22.6076 27.6378 22.6076 27.6378L22.5533 29.0901L22.5339 29.6088H23.0529H29.7925V37.9097H22.6867H22.1696L22.187 38.4265L22.2356 39.8735C22.3584 43.5244 23.5319 46.5568 26.0177 48.6224L26.0201 48.6244L26.0276 48.6305L26.0278 48.6307C28.4379 50.6056 31.5477 51.4978 35.1617 51.4978C37.4492 51.4978 39.5278 51.0864 41.3332 50.185C43.1321 49.3006 44.5664 48.0469 45.5466 46.404C46.5406 44.7565 47.015 42.8972 47.015 40.8835C47.015 38.6788 46.4843 36.6929 45.2721 35.0766C44.8043 34.4528 44.2688 33.9037 43.6706 33.4288C44.0332 33.0941 44.3747 32.7263 44.6953 32.328L44.6989 32.3236L44.699 32.3236L44.7063 32.3142L44.7092 32.3105C44.7095 32.3101 44.7099 32.3096 44.7102 32.3091C45.9384 30.7454 46.4781 28.8156 46.4781 26.6763C46.4781 24.8059 46.0067 23.0684 45.0429 21.5141C44.0838 19.9218 42.6711 18.7144 40.9068 17.8637C39.1278 16.9925 37.0662 16.5989 34.79 16.5989C31.3528 16.5989 28.3969 17.4864 26.1431 19.4671ZM26.1431 19.4671L26.4731 19.8427M26.1431 19.4671L26.4731 19.8427M26.4731 19.8427C24.3057 21.7474 23.2284 24.4165 23.1073 27.6565L44.3058 32.0145L44.311 32.0081L44.316 32.0016C45.4606 30.545 45.9781 28.7314 45.9781 26.6763C45.9781 24.8923 45.5293 23.2462 44.6163 21.7749C43.7139 20.2755 42.3795 19.1287 40.6883 18.3134C38.9934 17.4831 37.0106 17.0989 34.79 17.0989C31.4385 17.0989 28.612 17.963 26.4731 19.8427ZM31.8851 25.0361L31.8852 25.0363C32.5283 24.2577 33.4736 23.9048 34.6248 23.9048C35.6877 23.9048 36.5842 24.2115 37.2498 24.8772C37.9181 25.5455 38.2223 26.4578 38.2223 27.5436C38.2223 28.9152 37.7222 29.9758 36.6458 30.5813L36.6411 30.5839L36.6411 30.5839C35.6885 31.1063 34.4675 31.3476 33.0141 31.3476H32.1925V36.0883H33.0141C34.8855 36.0883 36.3512 36.3903 37.3083 37.0882C38.3321 37.7858 38.8005 38.9151 38.8005 40.3466C38.8005 41.4716 38.4623 42.4288 37.7532 43.1702C37.0559 43.9005 36.0835 44.2332 34.9139 44.2332C33.5576 44.2332 32.4452 43.8625 31.6622 43.0469L31.6554 43.0399L31.6555 43.0398C30.9907 42.3196 30.6218 41.3978 30.5188 40.3097H24.66C24.6791 40.5963 24.7058 40.8754 24.7401 41.147L24.7401 41.147C25.0539 43.6309 26.002 45.4881 27.5502 46.7753C29.42 48.307 31.94 49.0978 35.1617 49.0978C37.1675 49.0978 38.8632 48.7368 40.2658 48.0355L40.269 48.0338C41.7072 47.3278 42.7722 46.3717 43.4877 45.1706L43.4893 45.1679C44.2358 43.9324 44.615 42.5093 44.615 40.8835C44.615 39.064 44.1808 37.6216 43.3521 36.5166L31.8851 25.0361ZM31.8851 25.0361L31.8769 25.0465M31.8851 25.0361L31.8769 25.0465M31.8769 25.0465C31.3985 25.6578 31.0977 26.3835 30.9624 27.2088H25.035C25.0564 26.9249 25.0864 26.6486 25.125 26.3799L25.125 26.3798C25.4373 24.2049 26.311 22.5145 27.7273 21.2699C29.4297 19.7739 31.7645 18.9989 34.79 18.9989C36.7987 18.9989 38.4814 19.3471 39.8562 20.0216L39.8595 20.0232C41.2712 20.7029 42.3066 21.6184 42.9929 22.7622L42.9929 22.7623L42.9972 22.7691C43.7159 23.9243 44.0781 25.2222 44.0781 26.6763C44.0781 28.4073 43.647 29.7767 42.8238 30.8256C42.3403 31.4258 41.8173 31.9118 41.2561 32.289C40.8379 32.5701 40.3965 32.7923 39.9311 32.9564C39.912 32.9631 39.893 32.9697 39.8741 32.9761L39.5351 33.0914V33.4495V33.6147V33.9754L39.8775 34.0892C39.8844 34.0915 39.8912 34.0938 39.898 34.096C39.9108 34.1004 39.9235 34.1046 39.9359 34.1089L39.9373 34.1094M31.8769 25.0465L39.9373 34.1094M39.9373 34.1094C40.4425 34.2818 40.9077 34.491 41.3342 34.7364C42.1366 35.1981 42.8078 35.7909 43.3521 36.5166L39.9373 34.1094ZM32.8609 38.4883H33.0141C34.7388 38.4883 35.5683 38.7883 35.8966 39.029L35.9174 39.0443L35.9252 39.0501L35.9333 39.0555L35.9545 39.0699C35.9546 39.0699 35.9547 39.07 35.9547 39.07C36.067 39.1461 36.1688 39.249 36.2482 39.4236C36.3314 39.6067 36.4005 39.8924 36.4005 40.3466C36.4005 40.9543 36.2355 41.2817 36.0252 41.5046L36.0175 41.5127C35.8912 41.645 35.6213 41.8332 34.9139 41.8332C34.0073 41.8332 33.6063 41.5993 33.4057 41.3973C33.1358 41.0976 32.9093 40.6183 32.8899 39.7665L32.8609 38.4883ZM33.2016 28.9459L33.2961 27.8758L33.2961 27.8758C33.3505 27.259 33.5245 26.8455 33.7488 26.5492C33.824 26.4644 34.0125 26.3048 34.6248 26.3048C35.2098 26.3048 35.4382 26.4597 35.5528 26.5743C35.6576 26.679 35.8223 26.9136 35.8223 27.5436C35.8223 27.9268 35.7616 28.1383 35.7005 28.2577C35.646 28.3644 35.5759 28.4282 35.477 28.485C35.0244 28.7303 34.3035 28.926 33.2016 28.9459ZM40.0351 33.6147V33.4495L41.5836 34.3031C41.2541 34.1135 40.9045 33.9449 40.5347 33.7973C40.4452 33.8333 40.3548 33.8673 40.2636 33.8995L40.2635 33.8995C40.2413 33.9073 40.2188 33.9151 40.1961 33.9228L40.0986 33.6364L40.0986 33.6361C40.0775 33.6289 40.0563 33.6217 40.0351 33.6147Z" fill="#FF0716" stroke="black"/>
</g>
<defs>
<clipPath id="clip0_1_620">
<rect width="70" height="70" fill="white"/>
</clipPath>
</defs>
</svg>
