<svg width="70" height="70" viewBox="0 0 70 70" fill="none" xmlns="http://www.w3.org/2000/svg">
<g clip-path="url(#clip0_1_617)">
<path d="M70 35C70 15.6701 54.3299 0 35 0C15.6701 0 0 15.6701 0 35C0 54.3299 15.6701 70 35 70C54.3299 70 70 54.3299 70 35Z" fill="#D9D9D9"/>
<path d="M21.1237 45.381V45.881H21.6237H35.0005V50.75V51.25H35.5005H45.3628H45.8628V50.75V45.881H48.7494H49.2494V45.381V36.4686V35.9686H48.7494H45.8628V18.214V17.714H45.3628H35.345H35.0845L34.9353 17.9275L21.2139 37.5542L21.1237 37.6833V37.8407V45.381ZM37.4005 43.981V43.481H36.9005H23.5237V38.439L36.335 20.114H43.4628V37.8686V38.3686H43.9628H46.8494V43.481H43.9628H43.4628V43.981V48.85H37.4005V43.981ZM30.0407 37.5928L29.5275 38.3686H30.4577H37.3961H37.8961V37.8686V27.3784V25.7161L36.9791 27.1026L30.0407 37.5928ZM35.4961 33.6951V35.9686H33.9924L35.4961 33.6951Z" fill="#FF0716" stroke="black"/>
</g>
<defs>
<clipPath id="clip0_1_617">
<rect width="70" height="70" fill="white"/>
</clipPath>
</defs>
</svg>
