<svg width="70" height="70" viewBox="0 0 70 70" fill="none" xmlns="http://www.w3.org/2000/svg">
<g clip-path="url(#clip0_1_629)">
<path d="M70 35C70 15.6701 54.3299 0 35 0C15.6701 0 0 15.6701 0 35C0 54.3299 15.6701 70 35 70C54.3299 70 70 54.3299 70 35Z" fill="#D9D9D9"/>
<mask id="path-2-outside-1_1_629" maskUnits="userSpaceOnUse" x="20.7764" y="16.2648" width="28" height="36" fill="black">
<rect fill="white" x="20.7764" y="16.2648" width="28" height="36"/>
<path d="M44.8672 24.6848V25.3848H45.5672V24.6848H44.8672ZM30.6208 24.6848V23.9848H29.9208V24.6848H30.6208ZM30.6208 31.0912H29.9208V32.9542L31.1476 31.5521L30.6208 31.0912ZM33.2192 29.4336L33.4512 30.094L33.4562 30.0923L33.4612 30.0904L33.2192 29.4336ZM42.224 30.24L41.8357 30.8224L41.84 30.8252L41.8442 30.828L42.224 30.24ZM43.5232 47.488L44.0256 47.9754L44.0292 47.9717L43.5232 47.488ZM29.0976 49.2352L28.7887 49.8634L28.7975 49.8675L29.0976 49.2352ZM23.4976 40.3648V39.6648H22.7764L22.7979 40.3856L23.4976 40.3648ZM30.9792 40.3648L31.6718 40.2629L31.5838 39.6648H30.9792V40.3648ZM32.1888 42.8736L31.6938 43.3685L31.6993 43.3741L31.7049 43.3794L32.1888 42.8736ZM37.968 42.56L37.4195 42.125L37.4148 42.1309L37.4103 42.1369L37.968 42.56ZM32.4576 35.4816L32.8334 36.0722L32.8427 36.0662L32.8519 36.0599L32.4576 35.4816ZM31.1136 37.1392V37.8392H31.6112L31.7747 37.3691L31.1136 37.1392ZM23.6768 37.1392H22.9768V37.8392H23.6768V37.1392ZM23.6768 17.9648V17.2648H22.9768V17.9648H23.6768ZM44.8672 17.9648H45.5672V17.2648H44.8672V17.9648ZM44.8672 23.9848H30.6208V25.3848H44.8672V23.9848ZM29.9208 24.6848V31.0912H31.3208V24.6848H29.9208ZM31.1476 31.5521C31.679 30.9447 32.4341 30.4514 33.4512 30.094L32.9871 28.7731C31.7942 29.1923 30.8169 29.804 30.094 30.6302L31.1476 31.5521ZM33.4612 30.0904C34.5121 29.7032 35.6541 29.5064 36.8928 29.5064V28.1064C35.5032 28.1064 34.196 28.3276 32.9772 28.7768L33.4612 30.0904ZM36.8928 29.5064C38.9072 29.5064 40.5412 29.9594 41.8357 30.8224L42.6123 29.6575C41.0396 28.6091 39.1194 28.1064 36.8928 28.1064V29.5064ZM41.8442 30.828C43.1604 31.6781 44.1301 32.8242 44.7627 34.2818L46.0469 33.7245C45.3057 32.0163 44.1548 30.6537 42.6037 29.652L41.8442 30.828ZM44.7627 34.2818C45.4075 35.7678 45.7352 37.4188 45.7352 39.2448H47.1352C47.1352 37.2478 46.7759 35.4044 46.0469 33.7245L44.7627 34.2818ZM45.7352 39.2448C45.7352 42.5734 44.8064 45.1324 43.0171 47.0043L44.0292 47.9717C46.1226 45.7816 47.1352 42.8452 47.1352 39.2448H45.7352ZM43.0208 47.0006C41.244 48.832 38.7126 49.7896 35.3248 49.7896V51.1896C38.9855 51.1896 41.9198 50.1461 44.0256 47.9754L43.0208 47.0006ZM35.3248 49.7896C33.0164 49.7896 31.0474 49.3857 29.3977 48.6028L28.7975 49.8675C30.6721 50.7572 32.8545 51.1896 35.3248 51.1896V49.7896ZM29.4063 48.607C27.7498 47.7927 26.4941 46.6822 25.6137 45.2791L24.4278 46.0232C25.459 47.6665 26.921 48.9454 28.7887 49.8634L29.4063 48.607ZM25.6137 45.2791C24.7315 43.873 24.2537 42.235 24.1973 40.3439L22.7979 40.3856C22.8609 42.4968 23.3987 44.3829 24.4278 46.0232L25.6137 45.2791ZM23.4976 41.0648H30.9792V39.6648H23.4976V41.0648ZM30.2866 40.4666C30.4554 41.6145 30.9192 42.5939 31.6938 43.3685L32.6837 42.3786C32.1443 41.8391 31.8016 41.1459 31.6718 40.2629L30.2866 40.4666ZM31.7049 43.3794C32.5501 44.1879 33.6642 44.5592 34.9664 44.5592V43.1592C33.9389 43.1592 33.2013 42.8734 32.6726 42.3677L31.7049 43.3794ZM34.9664 44.5592C36.4719 44.5592 37.705 44.0648 38.5257 42.9831L37.4103 42.1369C36.9169 42.7874 36.1489 43.1592 34.9664 43.1592V44.5592ZM38.5164 42.995C39.3274 41.9725 39.6984 40.6546 39.6984 39.1104H38.2984C38.2984 40.4334 37.9825 41.4152 37.4195 42.125L38.5164 42.995ZM39.6984 39.1104C39.6984 37.6166 39.3067 36.3599 38.4282 35.4448L37.4182 36.4143C37.9733 36.9925 38.2984 37.8564 38.2984 39.1104H39.6984ZM38.4282 35.4448C37.549 34.5289 36.3475 34.1096 34.9216 34.1096V35.5096C36.0641 35.5096 36.8638 35.8369 37.4182 36.4143L38.4282 35.4448ZM34.9216 34.1096C33.8292 34.1096 32.8617 34.3588 32.0633 34.9032L32.8519 36.0599C33.3676 35.7084 34.0427 35.5096 34.9216 35.5096V34.1096ZM32.0817 34.891C31.3018 35.3874 30.7469 36.0624 30.4524 36.9092L31.7747 37.3691C31.9581 36.842 32.2992 36.4121 32.8334 36.0722L32.0817 34.891ZM31.1136 36.4392H23.6768V37.8392H31.1136V36.4392ZM24.3768 37.1392V17.9648H22.9768V37.1392H24.3768ZM23.6768 18.6648H44.8672V17.2648H23.6768V18.6648ZM44.1672 17.9648V24.6848H45.5672V17.9648H44.1672Z"/>
</mask>
<path d="M44.8672 24.6848V25.3848H45.5672V24.6848H44.8672ZM30.6208 24.6848V23.9848H29.9208V24.6848H30.6208ZM30.6208 31.0912H29.9208V32.9542L31.1476 31.5521L30.6208 31.0912ZM33.2192 29.4336L33.4512 30.094L33.4562 30.0923L33.4612 30.0904L33.2192 29.4336ZM42.224 30.24L41.8357 30.8224L41.84 30.8252L41.8442 30.828L42.224 30.24ZM43.5232 47.488L44.0256 47.9754L44.0292 47.9717L43.5232 47.488ZM29.0976 49.2352L28.7887 49.8634L28.7975 49.8675L29.0976 49.2352ZM23.4976 40.3648V39.6648H22.7764L22.7979 40.3856L23.4976 40.3648ZM30.9792 40.3648L31.6718 40.2629L31.5838 39.6648H30.9792V40.3648ZM32.1888 42.8736L31.6938 43.3685L31.6993 43.3741L31.7049 43.3794L32.1888 42.8736ZM37.968 42.56L37.4195 42.125L37.4148 42.1309L37.4103 42.1369L37.968 42.56ZM32.4576 35.4816L32.8334 36.0722L32.8427 36.0662L32.8519 36.0599L32.4576 35.4816ZM31.1136 37.1392V37.8392H31.6112L31.7747 37.3691L31.1136 37.1392ZM23.6768 37.1392H22.9768V37.8392H23.6768V37.1392ZM23.6768 17.9648V17.2648H22.9768V17.9648H23.6768ZM44.8672 17.9648H45.5672V17.2648H44.8672V17.9648ZM44.8672 23.9848H30.6208V25.3848H44.8672V23.9848ZM29.9208 24.6848V31.0912H31.3208V24.6848H29.9208ZM31.1476 31.5521C31.679 30.9447 32.4341 30.4514 33.4512 30.094L32.9871 28.7731C31.7942 29.1923 30.8169 29.804 30.094 30.6302L31.1476 31.5521ZM33.4612 30.0904C34.5121 29.7032 35.6541 29.5064 36.8928 29.5064V28.1064C35.5032 28.1064 34.196 28.3276 32.9772 28.7768L33.4612 30.0904ZM36.8928 29.5064C38.9072 29.5064 40.5412 29.9594 41.8357 30.8224L42.6123 29.6575C41.0396 28.6091 39.1194 28.1064 36.8928 28.1064V29.5064ZM41.8442 30.828C43.1604 31.6781 44.1301 32.8242 44.7627 34.2818L46.0469 33.7245C45.3057 32.0163 44.1548 30.6537 42.6037 29.652L41.8442 30.828ZM44.7627 34.2818C45.4075 35.7678 45.7352 37.4188 45.7352 39.2448H47.1352C47.1352 37.2478 46.7759 35.4044 46.0469 33.7245L44.7627 34.2818ZM45.7352 39.2448C45.7352 42.5734 44.8064 45.1324 43.0171 47.0043L44.0292 47.9717C46.1226 45.7816 47.1352 42.8452 47.1352 39.2448H45.7352ZM43.0208 47.0006C41.244 48.832 38.7126 49.7896 35.3248 49.7896V51.1896C38.9855 51.1896 41.9198 50.1461 44.0256 47.9754L43.0208 47.0006ZM35.3248 49.7896C33.0164 49.7896 31.0474 49.3857 29.3977 48.6028L28.7975 49.8675C30.6721 50.7572 32.8545 51.1896 35.3248 51.1896V49.7896ZM29.4063 48.607C27.7498 47.7927 26.4941 46.6822 25.6137 45.2791L24.4278 46.0232C25.459 47.6665 26.921 48.9454 28.7887 49.8634L29.4063 48.607ZM25.6137 45.2791C24.7315 43.873 24.2537 42.235 24.1973 40.3439L22.7979 40.3856C22.8609 42.4968 23.3987 44.3829 24.4278 46.0232L25.6137 45.2791ZM23.4976 41.0648H30.9792V39.6648H23.4976V41.0648ZM30.2866 40.4666C30.4554 41.6145 30.9192 42.5939 31.6938 43.3685L32.6837 42.3786C32.1443 41.8391 31.8016 41.1459 31.6718 40.2629L30.2866 40.4666ZM31.7049 43.3794C32.5501 44.1879 33.6642 44.5592 34.9664 44.5592V43.1592C33.9389 43.1592 33.2013 42.8734 32.6726 42.3677L31.7049 43.3794ZM34.9664 44.5592C36.4719 44.5592 37.705 44.0648 38.5257 42.9831L37.4103 42.1369C36.9169 42.7874 36.1489 43.1592 34.9664 43.1592V44.5592ZM38.5164 42.995C39.3274 41.9725 39.6984 40.6546 39.6984 39.1104H38.2984C38.2984 40.4334 37.9825 41.4152 37.4195 42.125L38.5164 42.995ZM39.6984 39.1104C39.6984 37.6166 39.3067 36.3599 38.4282 35.4448L37.4182 36.4143C37.9733 36.9925 38.2984 37.8564 38.2984 39.1104H39.6984ZM38.4282 35.4448C37.549 34.5289 36.3475 34.1096 34.9216 34.1096V35.5096C36.0641 35.5096 36.8638 35.8369 37.4182 36.4143L38.4282 35.4448ZM34.9216 34.1096C33.8292 34.1096 32.8617 34.3588 32.0633 34.9032L32.8519 36.0599C33.3676 35.7084 34.0427 35.5096 34.9216 35.5096V34.1096ZM32.0817 34.891C31.3018 35.3874 30.7469 36.0624 30.4524 36.9092L31.7747 37.3691C31.9581 36.842 32.2992 36.4121 32.8334 36.0722L32.0817 34.891ZM31.1136 36.4392H23.6768V37.8392H31.1136V36.4392ZM24.3768 37.1392V17.9648H22.9768V37.1392H24.3768ZM23.6768 18.6648H44.8672V17.2648H23.6768V18.6648ZM44.1672 17.9648V24.6848H45.5672V17.9648H44.1672Z" fill="#33FE00"/>
<path d="M25.2865 46.0747L25.8795 45.7027L25.348 44.8556L24.755 45.2276L25.2865 46.0747ZM37.5769 35.5689L37.0719 36.0536L37.7645 36.775L38.2694 36.2903L37.5769 35.5689ZM37.3928 29.5064V28.1064H36.3928V29.5064H37.3928ZM44.9617 34.7405L46.2459 34.1832L45.8478 33.2658L44.5636 33.8232L44.9617 34.7405ZM45.7352 39.7448H47.1352V38.7448H45.7352V39.7448ZM34.8248 49.7896V51.1896H35.8248V49.7896H34.8248ZM25.348 44.8556L24.1621 45.5997L24.6935 46.4468L25.8795 45.7027L25.348 44.8556ZM35.4664 44.5592V43.1592H34.4664V44.5592H35.4664ZM39.6984 38.6104H38.2984V39.6104H39.6984V38.6104ZM38.0819 35.0841L37.0719 36.0536L37.7645 36.775L38.7744 35.8055L38.0819 35.0841ZM34.4216 34.1096V35.5096H35.4216V34.1096H34.4216ZM44.8672 24.6848V23.6848H43.8672V24.6848H44.8672ZM45.5672 25.3848V26.3848H46.5672V25.3848H45.5672ZM30.6208 24.6848V25.6848H31.6208V24.6848H30.6208ZM29.9208 23.9848V22.9848H28.9208V23.9848H29.9208ZM30.6208 31.0912L31.2793 30.3386L30.9965 30.0912H30.6208V31.0912ZM29.9208 32.9542H28.9208V35.6155L30.6733 33.6127L29.9208 32.9542ZM31.1476 31.5521L31.9002 32.2106L31.9002 32.2106L31.1476 31.5521ZM33.2192 29.4336L34.1575 29.0879L32.2757 29.7651L33.2192 29.4336ZM33.4512 30.094L33.7827 31.0375L33.7835 31.0372L33.4512 30.094ZM33.4562 30.0923L33.7885 31.0354L33.8 31.0314L33.8113 31.0271L33.4562 30.0923ZM42.224 30.24L43.064 30.7825L41.3919 29.6852L42.224 30.24ZM41.84 30.8252L41.2824 31.6554L41.2916 31.6616L41.301 31.6676L41.84 30.8252ZM43.5232 47.488L44.2142 46.7651L42.8269 48.2057L43.5232 47.488ZM44.0256 47.9754L44.7434 48.6717L44.7463 48.6686L44.0256 47.9754ZM44.0292 47.9717L44.7499 48.6649L44.7521 48.6626L44.0292 47.9717ZM29.0976 49.2352L30.001 49.6639L28.2002 48.794L29.0976 49.2352ZM28.7887 49.8634L28.3476 50.7609L28.3546 50.7643L28.3616 50.7676L28.7887 49.8634ZM25.6137 45.2791L26.4608 44.7476L26.4608 44.7476L25.6137 45.2791ZM23.4976 40.3648L23.5274 41.3643L24.4976 41.3354V40.3648H23.4976ZM22.7764 39.6648V38.6648H21.7461L21.7768 39.6946L22.7764 39.6648ZM22.7979 40.3856L21.7983 40.4154L21.7983 40.4155L22.7979 40.3856ZM30.9792 40.3648H29.9792V41.5226L31.1247 41.3541L30.9792 40.3648ZM31.6718 40.2629L32.6611 40.1174L32.6611 40.1174L31.6718 40.2629ZM31.5838 39.6648L32.5731 39.5192L32.4474 38.6648H31.5838V39.6648ZM32.1888 42.8736L32.9114 43.5648L31.4817 42.1665L32.1888 42.8736ZM31.6993 43.3741L30.9921 44.081L31.0012 44.0902L31.0106 44.0991L31.6993 43.3741ZM37.968 42.56L37.3636 43.3567L38.5894 41.7765L37.968 42.56ZM37.4148 42.1309L36.6332 41.5072L36.625 41.5174L36.6171 41.5278L37.4148 42.1309ZM37.4182 36.4143L38.1396 35.7218L38.1395 35.7217L37.4182 36.4143ZM32.4576 35.4816L33.2838 34.9182L31.6139 36.0184L32.4576 35.4816ZM32.8334 36.0722L33.3703 36.9158L33.3718 36.9148L32.8334 36.0722ZM32.8427 36.0662L33.3811 36.9089L33.3953 36.8999L33.4091 36.8904L32.8427 36.0662ZM31.1136 37.1392L31.4421 36.1947L30.1136 35.7326V37.1392H31.1136ZM31.6112 37.8392V38.8392H32.3221L32.5557 38.1677L31.6112 37.8392ZM31.7747 37.3691L32.7192 37.6977L32.7192 37.6976L31.7747 37.3691ZM23.6768 37.1392H24.6768V36.1392H23.6768V37.1392ZM22.9768 37.8392H21.9768V38.8392H22.9768V37.8392ZM23.6768 17.9648V18.9648H24.6768V17.9648H23.6768ZM22.9768 17.2648V16.2648H21.9768V17.2648H22.9768ZM44.8672 17.9648H43.8672V18.9648H44.8672V17.9648ZM45.5672 17.2648H46.5672V16.2648H45.5672V17.2648ZM44.8672 23.9848H45.8672V22.9848H44.8672V23.9848ZM30.6208 25.3848H29.6208V26.3848H30.6208V25.3848ZM31.3208 31.0912V32.0912H32.3208V31.0912H31.3208ZM31.3208 24.6848H32.3208V23.6848H31.3208V24.6848ZM32.9871 28.7731L33.9306 28.4416L33.5991 27.4982L32.6556 27.8297L32.9871 28.7731ZM30.094 30.6302L29.3414 29.9717L28.6829 30.7243L29.4355 31.3828L30.094 30.6302ZM32.9772 28.7768L32.6314 27.8384L31.6931 28.1842L32.0388 29.1225L32.9772 28.7768ZM42.6123 29.6575L43.4443 30.2122L43.999 29.3801L43.1669 28.8254L42.6123 29.6575ZM44.7627 34.2818L45.68 33.8838L45.68 33.8837L44.7627 34.2818ZM46.0469 33.7245L45.1295 34.1226L45.1295 34.1226L46.0469 33.7245ZM42.6037 29.652L43.1462 28.8119L42.3062 28.2694L41.7637 29.1094L42.6037 29.652ZM43.0171 47.0043L42.2943 46.3133L41.6033 47.0362L42.3262 47.7271L43.0171 47.0043ZM43.0208 47.0006L43.7171 46.2828L42.9994 45.5865L42.303 46.3042L43.0208 47.0006ZM29.3977 48.6028L29.8264 47.6994L28.923 47.2706L28.4942 48.1741L29.3977 48.6028ZM29.4063 48.607L30.3038 49.0481L30.7449 48.1507L29.8475 47.7096L29.4063 48.607ZM24.4278 46.0232L23.5807 46.5547L23.5808 46.5547L24.4278 46.0232ZM24.1973 40.3439L25.1969 40.3141L25.167 39.3146L24.1675 39.3444L24.1973 40.3439ZM23.4976 41.0648H22.4976V42.0648H23.4976V41.0648ZM30.9792 41.0648V42.0648H31.9792V41.0648H30.9792ZM30.2866 40.4666L30.1411 39.4773L29.1517 39.6228L29.2972 40.6121L30.2866 40.4666ZM32.6837 42.3786L33.3909 43.0857L34.098 42.3786L33.3909 41.6715L32.6837 42.3786ZM32.6726 42.3677L33.3638 41.6451L32.6412 40.9539L31.95 41.6765L32.6726 42.3677ZM38.5257 42.9831L39.3224 43.5874L39.9268 42.7908L39.1301 42.1864L38.5257 42.9831ZM38.5164 42.995L37.895 43.7784L38.6785 44.3998L39.2999 43.6164L38.5164 42.995ZM38.4282 35.4448L37.7068 36.1373L37.7068 36.1374L38.4282 35.4448ZM32.0633 34.9032L31.4999 34.077L30.6738 34.6404L31.237 35.4666L32.0633 34.9032ZM32.0817 34.891L32.9254 34.3541L32.3885 33.5104L31.5448 34.0473L32.0817 34.891ZM30.4524 36.9092L29.5079 36.5807L29.1794 37.5252L30.1239 37.8537L30.4524 36.9092ZM31.1136 36.4392H32.1136V35.4392H31.1136V36.4392ZM23.6768 36.4392V35.4392H22.6768V36.4392H23.6768ZM24.3768 37.1392V38.1392H25.3768V37.1392H24.3768ZM24.3768 17.9648H25.3768V16.9648H24.3768V17.9648ZM23.6768 18.6648H22.6768V19.6648H23.6768V18.6648ZM44.8672 18.6648V19.6648H45.8672V18.6648H44.8672ZM44.1672 17.9648V16.9648H43.1672V17.9648H44.1672ZM44.1672 24.6848H43.1672V25.6848H44.1672V24.6848ZM43.8672 24.6848V25.3848H45.8672V24.6848H43.8672ZM44.8672 26.3848H45.5672V24.3848H44.8672V26.3848ZM46.5672 25.3848V24.6848H44.5672V25.3848H46.5672ZM45.5672 23.6848H44.8672V25.6848H45.5672V23.6848ZM31.6208 24.6848V23.9848H29.6208V24.6848H31.6208ZM30.6208 22.9848H29.9208V24.9848H30.6208V22.9848ZM28.9208 23.9848V24.6848H30.9208V23.9848H28.9208ZM29.9208 25.6848H30.6208V23.6848H29.9208V25.6848ZM30.6208 30.0912H29.9208V32.0912H30.6208V30.0912ZM28.9208 31.0912V32.9542H30.9208V31.0912H28.9208ZM30.6733 33.6127L31.9002 32.2106L30.395 30.8936L29.1682 32.2956L30.6733 33.6127ZM31.8061 30.7995L31.2793 30.3386L29.9623 31.8438L30.4891 32.3047L31.8061 30.7995ZM32.2757 29.7651L32.5078 30.4255L34.3947 29.7625L34.1626 29.1021L32.2757 29.7651ZM33.7835 31.0372L33.7885 31.0354L33.1239 29.1491L33.1189 29.1508L33.7835 31.0372ZM33.8113 31.0271L33.8163 31.0252L33.106 29.1556L33.1011 29.1575L33.8113 31.0271ZM34.3995 29.7447L34.1575 29.0879L32.2808 29.7793L32.5228 30.4361L34.3995 29.7447ZM41.3919 29.6852L41.0037 30.2676L42.6677 31.3771L43.056 30.7947L41.3919 29.6852ZM41.2781 31.6525L41.2824 31.6554L42.3975 29.9951L42.3933 29.9922L41.2781 31.6525ZM41.301 31.6676L41.3053 31.6703L42.3831 29.9856L42.3789 29.9829L41.301 31.6676ZM42.6843 31.3705L43.064 30.7825L41.3839 29.6974L41.0042 30.2854L42.6843 31.3705ZM42.8269 48.2057L43.3294 48.6932L44.7219 47.2576L44.2195 46.7702L42.8269 48.2057ZM44.7463 48.6686L44.7499 48.6649L43.3085 47.2784L43.3049 47.2821L44.7463 48.6686ZM44.7202 47.2488L44.2142 46.7651L42.8322 48.2108L43.3382 48.6945L44.7202 47.2488ZM28.2002 48.794L27.8913 49.4223L29.6862 50.3046L29.995 49.6763L28.2002 48.794ZM28.3616 50.7676L28.3704 50.7717L29.2246 48.9634L29.2159 48.9592L28.3616 50.7676ZM29.7009 50.2963L30.001 49.6639L28.1941 48.8065L27.894 49.4388L29.7009 50.2963ZM24.4976 40.3648V39.6648H22.4976V40.3648H24.4976ZM23.4976 38.6648H22.7764V40.6648H23.4976V38.6648ZM21.7768 39.6946L21.7983 40.4154L23.7974 40.3558L23.7759 39.635L21.7768 39.6946ZM22.8277 41.3852L23.5274 41.3643L23.4678 39.3652L22.7681 39.3861L22.8277 41.3852ZM31.1247 41.3541L31.8173 41.2523L31.5263 39.2736L30.8337 39.3754L31.1247 41.3541ZM32.6611 40.1174L32.5731 39.5192L30.5944 39.8103L30.6824 40.4085L32.6611 40.1174ZM31.5838 38.6648H30.9792V40.6648H31.5838V38.6648ZM29.9792 39.6648V40.3648H31.9792V39.6648H29.9792ZM31.4817 42.1665L30.9867 42.6614L32.4009 44.0756L32.8959 43.5807L31.4817 42.1665ZM30.9865 44.0755L30.9921 44.081L32.4066 42.6671L32.4011 42.6616L30.9865 44.0755ZM31.0106 44.0991L31.0162 44.1044L32.3937 42.6544L32.3881 42.649L31.0106 44.0991ZM32.4276 44.0706L32.9114 43.5648L31.4661 42.1823L30.9823 42.6882L32.4276 44.0706ZM38.5894 41.7765L38.0409 41.3415L36.7981 42.9085L37.3466 43.3435L38.5894 41.7765ZM36.6379 41.5013L36.6332 41.5072L38.1965 42.7546L38.2012 42.7487L36.6379 41.5013ZM36.6171 41.5278L36.6126 41.5338L38.208 42.7399L38.2125 42.7339L36.6171 41.5278ZM36.8059 42.9336L37.3636 43.3567L38.5724 41.7633L38.0147 41.3402L36.8059 42.9336ZM31.6139 36.0184L31.9897 36.609L33.6771 35.5353L33.3012 34.9447L31.6139 36.0184ZM33.3718 36.9148L33.3811 36.9089L32.3043 35.2235L32.295 35.2295L33.3718 36.9148ZM33.4091 36.8904L33.4183 36.884L32.2855 35.2358L32.2763 35.2421L33.4091 36.8904ZM33.6781 35.4966L33.2838 34.9182L31.6313 36.0449L32.0257 36.6232L33.6781 35.4966ZM30.1136 37.1392V37.8392H32.1136V37.1392H30.1136ZM31.1136 38.8392H31.6112V36.8392H31.1136V38.8392ZM32.5557 38.1677L32.7192 37.6977L30.8302 37.0406L30.6667 37.5106L32.5557 38.1677ZM32.1032 36.4246L31.4421 36.1947L30.7851 38.0837L31.4462 38.3136L32.1032 36.4246ZM23.6768 36.1392H22.9768V38.1392H23.6768V36.1392ZM21.9768 37.1392V37.8392H23.9768V37.1392H21.9768ZM22.9768 38.8392H23.6768V36.8392H22.9768V38.8392ZM24.6768 37.8392V37.1392H22.6768V37.8392H24.6768ZM24.6768 17.9648V17.2648H22.6768V17.9648H24.6768ZM23.6768 16.2648H22.9768V18.2648H23.6768V16.2648ZM21.9768 17.2648V17.9648H23.9768V17.2648H21.9768ZM22.9768 18.9648H23.6768V16.9648H22.9768V18.9648ZM44.8672 18.9648H45.5672V16.9648H44.8672V18.9648ZM46.5672 17.9648V17.2648H44.5672V17.9648H46.5672ZM45.5672 16.2648H44.8672V18.2648H45.5672V16.2648ZM43.8672 17.2648V17.9648H45.8672V17.2648H43.8672ZM44.8672 22.9848H30.6208V24.9848H44.8672V22.9848ZM29.6208 23.9848V25.3848H31.6208V23.9848H29.6208ZM30.6208 26.3848H44.8672V24.3848H30.6208V26.3848ZM45.8672 25.3848V23.9848H43.8672V25.3848H45.8672ZM28.9208 24.6848V31.0912H30.9208V24.6848H28.9208ZM29.9208 32.0912H31.3208V30.0912H29.9208V32.0912ZM32.3208 31.0912V24.6848H30.3208V31.0912H32.3208ZM31.3208 23.6848H29.9208V25.6848H31.3208V23.6848ZM31.9002 32.2106C32.2949 31.7595 32.8912 31.3507 33.7827 31.0375L33.1198 29.1506C31.9769 29.552 31.0632 30.13 30.395 30.8936L31.9002 32.2106ZM34.3947 29.7625L33.9306 28.4416L32.0437 29.1046L32.5078 30.4255L34.3947 29.7625ZM32.6556 27.8297C31.3372 28.2929 30.2012 28.9891 29.3414 29.9717L30.8465 31.2887C31.4327 30.6189 32.2512 30.0917 33.3186 29.7166L32.6556 27.8297ZM29.4355 31.3828L30.4891 32.3047L31.8061 30.7995L30.7524 29.8776L29.4355 31.3828ZM33.8068 31.0287C34.738 30.6857 35.7618 30.5064 36.8928 30.5064V28.5064C35.5463 28.5064 34.2863 28.7207 33.1155 29.152L33.8068 31.0287ZM36.8928 27.1064C35.3955 27.1064 33.9702 27.3451 32.6314 27.8384L33.3229 29.7151C34.4218 29.3102 35.6109 29.1064 36.8928 29.1064V27.1064ZM32.0388 29.1225L32.5228 30.4361L34.3995 29.7447L33.9155 28.431L32.0388 29.1225ZM36.8928 30.5064C38.7556 30.5064 40.1851 30.9239 41.281 31.6544L42.3904 29.9903C40.8973 28.995 39.0589 28.5064 36.8928 28.5064V30.5064ZM42.6677 31.3771L43.4443 30.2122L41.7802 29.1028L41.0036 30.2677L42.6677 31.3771ZM43.1669 28.8254C41.3955 27.6446 39.2709 27.1064 36.8928 27.1064V29.1064C38.9679 29.1064 40.6836 29.5736 42.0576 30.4896L43.1669 28.8254ZM41.3017 31.668C42.4501 32.4097 43.2904 33.4012 43.8453 34.6799L45.68 33.8837C44.9698 32.2471 43.8707 30.9464 42.3868 29.988L41.3017 31.668ZM46.9642 33.3264C46.1454 31.4393 44.8651 29.922 43.1462 28.8119L42.0612 30.492C43.4445 31.3854 44.466 32.5933 45.1295 34.1226L46.9642 33.3264ZM41.7637 29.1094L41.0042 30.2854L42.6843 31.3705L43.4438 30.1945L41.7637 29.1094ZM43.8453 34.6799C44.43 36.0273 44.7352 37.541 44.7352 39.2448H46.7352C46.7352 37.2967 46.385 35.5083 45.68 33.8838L43.8453 34.6799ZM48.1352 39.2448C48.1352 37.1257 47.7534 35.1449 46.9642 33.3264L45.1295 34.1226C45.7985 35.664 46.1352 37.3699 46.1352 39.2448H48.1352ZM44.7352 39.2448C44.7352 42.379 43.8664 44.6685 42.2943 46.3133L43.74 47.6952C45.7464 45.5963 46.7352 42.7678 46.7352 39.2448H44.7352ZM42.3262 47.7271L43.3382 48.6945L44.7202 47.2488L43.7081 46.2814L42.3262 47.7271ZM44.7521 48.6626C47.0628 46.2453 48.1352 43.0392 48.1352 39.2448H46.1352C46.1352 42.6512 45.1824 45.318 43.3063 47.2807L44.7521 48.6626ZM42.303 46.3042C40.7613 47.8935 38.5173 48.7896 35.3248 48.7896V50.7896C38.9078 50.7896 41.7268 49.7705 43.7385 47.6969L42.303 46.3042ZM35.3248 52.1896C39.1802 52.1896 42.4022 51.0849 44.7434 48.6717L43.3079 47.2791C41.4373 49.2073 38.7908 50.1896 35.3248 50.1896V52.1896ZM44.7219 47.2576L43.7171 46.2828L42.3245 47.7183L43.3293 48.6931L44.7219 47.2576ZM35.3248 48.7896C33.132 48.7896 31.3154 48.406 29.8264 47.6994L28.9689 49.5062C30.7793 50.3653 32.9008 50.7896 35.3248 50.7896V48.7896ZM28.4942 48.1741L27.894 49.4388L29.7009 50.2963L30.3011 49.0315L28.4942 48.1741ZM28.3687 50.771C30.404 51.7369 32.7389 52.1896 35.3248 52.1896V50.1896C32.9701 50.1896 30.9401 49.7775 29.2262 48.9641L28.3687 50.771ZM29.8475 47.7096C28.3417 46.9694 27.2334 45.9791 26.4608 44.7476L24.7667 45.8106C25.7547 47.3853 27.1579 48.616 28.9652 49.5044L29.8475 47.7096ZM23.5808 46.5547C24.7196 48.3697 26.3291 49.7688 28.3476 50.7609L29.2298 48.966C27.5129 48.1221 26.1983 46.9634 25.2749 45.4917L23.5808 46.5547ZM29.6862 50.3046L30.3038 49.0481L28.5089 48.1658L27.8913 49.4223L29.6862 50.3046ZM26.4608 44.7476C25.6835 43.5088 25.2486 42.0479 25.1969 40.3141L23.1977 40.3737C23.2589 42.422 23.7795 44.2373 24.7667 45.8106L26.4608 44.7476ZM24.1675 39.3444L22.7681 39.3861L22.8277 41.3852L24.2271 41.3435L24.1675 39.3444ZM21.7983 40.4155C21.8661 42.6837 22.4466 44.7471 23.5807 46.5547L25.2749 45.4918C24.3507 44.0187 23.8558 42.3098 23.7974 40.3558L21.7983 40.4155ZM23.4976 42.0648H30.9792V40.0648H23.4976V42.0648ZM31.9792 41.0648V39.6648H29.9792V41.0648H31.9792ZM30.9792 38.6648H23.4976V40.6648H30.9792V38.6648ZM22.4976 39.6648V41.0648H24.4976V39.6648H22.4976ZM29.2972 40.6121C29.4939 41.9492 30.0441 43.133 30.9867 44.0756L32.4009 42.6614C31.7943 42.0548 31.417 41.2799 31.276 40.3211L29.2972 40.6121ZM32.4009 44.0756L33.3909 43.0857L31.9766 41.6715L30.9867 42.6614L32.4009 44.0756ZM33.3909 41.6715C33.0192 41.2998 32.7631 40.811 32.6611 40.1174L30.6824 40.4084C30.8401 41.4808 31.2693 42.3784 31.9766 43.0857L33.3909 41.6715ZM31.5263 39.2736L30.1411 39.4773L30.4321 41.456L31.8173 41.2523L31.5263 39.2736ZM31.0137 44.102C32.0853 45.1271 33.4685 45.5592 34.9664 45.5592V43.5592C33.86 43.5592 33.0149 43.2487 32.3962 42.6568L31.0137 44.102ZM34.9664 42.1592C34.1359 42.1592 33.6668 41.9349 33.3638 41.6451L31.9814 43.0904C32.7357 43.8119 33.7419 44.1592 34.9664 44.1592V42.1592ZM31.95 41.6765L30.9823 42.6882L32.4276 44.0706L33.3953 43.059L31.95 41.6765ZM34.9664 45.5592C36.7015 45.5592 38.2674 44.978 39.3224 43.5874L37.729 42.3787C37.1426 43.1516 36.2423 43.5592 34.9664 43.5592V45.5592ZM39.1301 42.1864L38.0147 41.3402L36.8059 42.9336L37.9213 43.7797L39.1301 42.1864ZM36.6136 41.5326C36.3531 41.876 35.9165 42.1592 34.9664 42.1592V44.1592C36.3812 44.1592 37.4807 43.6988 38.207 42.7412L36.6136 41.5326ZM39.2999 43.6164C40.2881 42.3704 40.6984 40.8123 40.6984 39.1104H38.6984C38.6984 40.4969 38.3666 41.5746 37.7329 42.3736L39.2999 43.6164ZM37.2984 39.1104C37.2984 40.275 37.022 41.0169 36.636 41.5036L38.203 42.7464C38.9429 41.8135 39.2984 40.5918 39.2984 39.1104H37.2984ZM36.7981 42.9085L37.895 43.7784L39.1378 42.2115L38.0409 41.3415L36.7981 42.9085ZM40.6984 39.1104C40.6984 37.446 40.2594 35.9084 39.1495 34.7523L37.7068 36.1374C38.3539 36.8115 38.6984 37.7873 38.6984 39.1104H40.6984ZM36.6968 37.1069C37.0213 37.4448 37.2984 38.0284 37.2984 39.1104H39.2984C39.2984 37.6844 38.9253 36.5402 38.1396 35.7218L36.6968 37.1069ZM39.1496 34.7523C38.038 33.5943 36.5493 33.1096 34.9216 33.1096V35.1096C36.1458 35.1096 37.0599 35.4635 37.7068 36.1373L39.1496 34.7523ZM34.9216 36.5096C35.8608 36.5096 36.374 36.7706 36.6969 37.1069L38.1395 35.7217C37.3536 34.9032 36.2675 34.5096 34.9216 34.5096V36.5096ZM34.9216 33.1096C33.6769 33.1096 32.5005 33.3947 31.4999 34.077L32.6267 35.7294C33.2229 35.3228 33.9815 35.1096 34.9216 35.1096V33.1096ZM31.237 35.4666L32.0257 36.6232L33.6781 35.4966L32.8895 34.3399L31.237 35.4666ZM33.4152 36.8862C33.7291 36.6722 34.1956 36.5096 34.9216 36.5096V34.5096C33.8899 34.5096 33.0061 34.7446 32.2886 35.2336L33.4152 36.8862ZM31.5448 34.0473C30.5895 34.6554 29.8819 35.5055 29.5079 36.5807L31.3969 37.2377C31.612 36.6194 32.0141 36.1193 32.6187 35.7346L31.5448 34.0473ZM30.1239 37.8537L31.4462 38.3136L32.1032 36.4246L30.7809 35.9647L30.1239 37.8537ZM32.7192 37.6976C32.8232 37.3987 33.0118 37.1439 33.3703 36.9158L32.2965 35.2285C31.5866 35.6802 31.0929 36.2853 30.8302 37.0406L32.7192 37.6976ZM33.6771 35.5353L32.9254 34.3541L31.2381 35.4279L31.9897 36.609L33.6771 35.5353ZM31.1136 35.4392H23.6768V37.4392H31.1136V35.4392ZM22.6768 36.4392V37.8392H24.6768V36.4392H22.6768ZM23.6768 38.8392H31.1136V36.8392H23.6768V38.8392ZM32.1136 37.8392V36.4392H30.1136V37.8392H32.1136ZM25.3768 37.1392V17.9648H23.3768V37.1392H25.3768ZM24.3768 16.9648H22.9768V18.9648H24.3768V16.9648ZM21.9768 17.9648V37.1392H23.9768V17.9648H21.9768ZM22.9768 38.1392H24.3768V36.1392H22.9768V38.1392ZM23.6768 19.6648H44.8672V17.6648H23.6768V19.6648ZM45.8672 18.6648V17.2648H43.8672V18.6648H45.8672ZM44.8672 16.2648H23.6768V18.2648H44.8672V16.2648ZM22.6768 17.2648V18.6648H24.6768V17.2648H22.6768ZM43.1672 17.9648V24.6848H45.1672V17.9648H43.1672ZM44.1672 25.6848H45.5672V23.6848H44.1672V25.6848ZM46.5672 24.6848V17.9648H44.5672V24.6848H46.5672ZM45.5672 16.9648H44.1672V18.9648H45.5672V16.9648Z" fill="black" mask="url(#path-2-outside-1_1_629)"/>
</g>
<defs>
<clipPath id="clip0_1_629">
<rect width="70" height="70" fill="white"/>
</clipPath>
</defs>
</svg>
