<svg width="70" height="70" viewBox="0 0 70 70" fill="none" xmlns="http://www.w3.org/2000/svg">
<g clip-path="url(#clip0_1_632)">
<path d="M70 35C70 15.6701 54.3299 0 35 0C15.6701 0 0 15.6701 0 35C0 54.3299 15.6701 70 35 70C54.3299 70 70 54.3299 70 35Z" fill="#D9D9D9"/>
<mask id="path-2-outside-1_1_632" maskUnits="userSpaceOnUse" x="20.2338" y="14.8409" width="30" height="41" fill="black">
<rect fill="white" x="20.2338" y="14.8409" width="30" height="41"/>
<path fill-rule="evenodd" clip-rule="evenodd" d="M30.202 53.2638L30.1973 53.2618C28.4435 52.5277 26.8913 51.3917 25.5406 49.8821L25.5344 49.8752L25.5283 49.8681C24.1976 48.3358 23.1609 46.4171 22.3925 44.1503L22.3904 44.1442C21.6082 41.7974 21.2338 39.0347 21.2338 35.8833C21.2338 32.5497 21.6265 29.61 22.4415 27.0876L22.4441 27.0792L22.4469 27.071C23.2852 24.594 24.3896 22.5002 25.7847 20.8261L25.7903 20.8193L25.7959 20.8128C27.216 19.156 28.8574 17.9062 30.7216 17.0946C32.5874 16.2618 34.5256 15.8409 36.526 15.8409C38.9672 15.8409 41.1488 16.286 43.0308 17.2248C44.8121 18.0778 46.3215 19.123 47.5325 20.3743L48.3389 21.2076L42.4584 27.9281L41.5068 26.9205C41.0132 26.3979 40.3463 25.9181 39.4738 25.498L39.457 25.4899L39.4404 25.4813C38.6211 25.0564 37.8177 24.8583 37.0174 24.8583C36.2374 24.8583 35.5173 25.0073 34.8444 25.2998C34.2444 25.5607 33.6632 26.022 33.1141 26.7531C32.612 27.4336 32.158 28.3931 31.7849 29.6817C31.6439 30.1686 31.5234 30.7052 31.4246 31.2929C31.8162 31.0319 32.2186 30.8026 32.632 30.6064C33.3172 30.2461 34.0166 29.9764 34.7293 29.8055C35.4319 29.6016 36.1237 29.4909 36.799 29.4909C38.4128 29.4909 39.92 29.727 41.3079 30.2161C42.7371 30.7068 43.9858 31.4508 45.0337 32.4543C46.1356 33.4742 46.9634 34.7526 47.5325 36.2564C48.1081 37.7778 48.3784 39.5187 48.3784 41.4525C48.3784 43.4158 48.0443 45.2116 47.3452 46.8154C46.6657 48.3743 45.7389 49.7303 44.5619 50.8688C43.4128 52.0157 42.0441 52.8896 40.4727 53.4939L40.4644 53.4972L40.456 53.5002C38.9249 54.0643 37.3024 54.3423 35.5978 54.3423C33.7543 54.3423 31.9546 53.9807 30.2067 53.2657L30.202 53.2638ZM44.17 33.3717C43.26 32.4981 42.168 31.8429 40.894 31.4061C39.6564 30.9693 38.2914 30.7509 36.799 30.7509C36.253 30.7509 35.6706 30.8419 35.0518 31.0239C34.433 31.1695 33.8142 31.4061 33.1954 31.7337C32.5766 32.0249 31.976 32.4071 31.3936 32.8803C31.3315 32.9269 31.2703 32.9743 31.2098 33.0225C30.7034 33.4266 30.2551 33.8888 29.8648 34.4091C29.8907 33.6985 29.9371 33.0269 30.0043 32.3943C30.1262 31.2445 30.3163 30.2236 30.5746 29.3313C30.975 27.9481 31.4846 26.8379 32.1034 26.0007C32.7586 25.1271 33.5048 24.5083 34.342 24.1443C35.1792 23.7803 36.071 23.5983 37.0174 23.5983C38.0366 23.5983 39.0376 23.8531 40.0204 24.3627C40.5603 24.6227 41.0452 24.91 41.4752 25.2249C41.828 25.4832 42.1439 25.76 42.4228 26.0553L46.627 21.2505C45.535 20.1221 44.1518 19.1575 42.4774 18.3567C40.803 17.5195 38.8192 17.1009 36.526 17.1009C34.706 17.1009 32.9406 17.4831 31.2298 18.2475C29.5554 18.9755 28.063 20.1039 26.7526 21.6327C25.4786 23.1615 24.4412 25.1089 23.6404 27.4749C22.876 29.8409 22.4938 32.6437 22.4938 35.8833C22.4938 38.9409 22.8578 41.5617 23.5858 43.7457C24.3138 45.8933 25.2784 47.6587 26.4796 49.0419C27.7172 50.4251 29.1186 51.4443 30.6838 52.0995C32.2854 52.7547 33.9234 53.0823 35.5978 53.0823C37.163 53.0823 38.6372 52.8275 40.0204 52.3179C41.44 51.7719 42.6594 50.9893 43.6786 49.9701C44.7342 48.9509 45.5714 47.7315 46.1902 46.3119C46.809 44.8923 47.1184 43.2725 47.1184 41.4525C47.1184 39.6325 46.8636 38.0491 46.354 36.7023C45.8444 35.3555 45.1164 34.2453 44.17 33.3717ZM37.5819 44.8942L37.5827 44.8933C38.1333 44.3198 38.542 43.2685 38.542 41.4525C38.542 39.7378 38.1311 38.9156 37.685 38.5439L37.6631 38.5256L37.642 38.5065C37.0729 37.9868 36.3185 37.6893 35.2702 37.6893C34.6217 37.6893 33.9087 37.882 33.1153 38.3397L33.1083 38.3438L33.1013 38.3477C32.5208 38.6727 31.9244 39.2425 31.34 40.143C31.5098 41.2558 31.7405 42.1486 32.0175 42.841C32.3442 43.6578 32.7003 44.2799 33.0688 44.7375C33.429 45.1499 33.7827 45.4199 34.1224 45.5865C34.5488 45.7404 34.9839 45.8163 35.434 45.8163C36.2889 45.8163 36.9804 45.5218 37.5819 44.8942ZM33.6322 46.7487C33.0862 46.4939 32.5766 46.0935 32.1034 45.5475C31.6302 44.9651 31.2116 44.2189 30.8476 43.3089C30.4836 42.3989 30.2106 41.2523 30.0286 39.8691C30.7566 38.6315 31.5756 37.7579 32.4856 37.2483C33.432 36.7023 34.3602 36.4293 35.2702 36.4293C36.5806 36.4293 37.6544 36.8115 38.4916 37.5759C39.3652 38.3039 39.802 39.5961 39.802 41.4525C39.802 43.4181 39.3652 44.8559 38.4916 45.7659C37.6544 46.6395 36.6352 47.0763 35.434 47.0763C34.8152 47.0763 34.2146 46.9671 33.6322 46.7487Z"/>
</mask>
<path fill-rule="evenodd" clip-rule="evenodd" d="M30.202 53.2638L30.1973 53.2618C28.4435 52.5277 26.8913 51.3917 25.5406 49.8821L25.5344 49.8752L25.5283 49.8681C24.1976 48.3358 23.1609 46.4171 22.3925 44.1503L22.3904 44.1442C21.6082 41.7974 21.2338 39.0347 21.2338 35.8833C21.2338 32.5497 21.6265 29.61 22.4415 27.0876L22.4441 27.0792L22.4469 27.071C23.2852 24.594 24.3896 22.5002 25.7847 20.8261L25.7903 20.8193L25.7959 20.8128C27.216 19.156 28.8574 17.9062 30.7216 17.0946C32.5874 16.2618 34.5256 15.8409 36.526 15.8409C38.9672 15.8409 41.1488 16.286 43.0308 17.2248C44.8121 18.0778 46.3215 19.123 47.5325 20.3743L48.3389 21.2076L42.4584 27.9281L41.5068 26.9205C41.0132 26.3979 40.3463 25.9181 39.4738 25.498L39.457 25.4899L39.4404 25.4813C38.6211 25.0564 37.8177 24.8583 37.0174 24.8583C36.2374 24.8583 35.5173 25.0073 34.8444 25.2998C34.2444 25.5607 33.6632 26.022 33.1141 26.7531C32.612 27.4336 32.158 28.3931 31.7849 29.6817C31.6439 30.1686 31.5234 30.7052 31.4246 31.2929C31.8162 31.0319 32.2186 30.8026 32.632 30.6064C33.3172 30.2461 34.0166 29.9764 34.7293 29.8055C35.4319 29.6016 36.1237 29.4909 36.799 29.4909C38.4128 29.4909 39.92 29.727 41.3079 30.2161C42.7371 30.7068 43.9858 31.4508 45.0337 32.4543C46.1356 33.4742 46.9634 34.7526 47.5325 36.2564C48.1081 37.7778 48.3784 39.5187 48.3784 41.4525C48.3784 43.4158 48.0443 45.2116 47.3452 46.8154C46.6657 48.3743 45.7389 49.7303 44.5619 50.8688C43.4128 52.0157 42.0441 52.8896 40.4727 53.4939L40.4644 53.4972L40.456 53.5002C38.9249 54.0643 37.3024 54.3423 35.5978 54.3423C33.7543 54.3423 31.9546 53.9807 30.2067 53.2657L30.202 53.2638ZM44.17 33.3717C43.26 32.4981 42.168 31.8429 40.894 31.4061C39.6564 30.9693 38.2914 30.7509 36.799 30.7509C36.253 30.7509 35.6706 30.8419 35.0518 31.0239C34.433 31.1695 33.8142 31.4061 33.1954 31.7337C32.5766 32.0249 31.976 32.4071 31.3936 32.8803C31.3315 32.9269 31.2703 32.9743 31.2098 33.0225C30.7034 33.4266 30.2551 33.8888 29.8648 34.4091C29.8907 33.6985 29.9371 33.0269 30.0043 32.3943C30.1262 31.2445 30.3163 30.2236 30.5746 29.3313C30.975 27.9481 31.4846 26.8379 32.1034 26.0007C32.7586 25.1271 33.5048 24.5083 34.342 24.1443C35.1792 23.7803 36.071 23.5983 37.0174 23.5983C38.0366 23.5983 39.0376 23.8531 40.0204 24.3627C40.5603 24.6227 41.0452 24.91 41.4752 25.2249C41.828 25.4832 42.1439 25.76 42.4228 26.0553L46.627 21.2505C45.535 20.1221 44.1518 19.1575 42.4774 18.3567C40.803 17.5195 38.8192 17.1009 36.526 17.1009C34.706 17.1009 32.9406 17.4831 31.2298 18.2475C29.5554 18.9755 28.063 20.1039 26.7526 21.6327C25.4786 23.1615 24.4412 25.1089 23.6404 27.4749C22.876 29.8409 22.4938 32.6437 22.4938 35.8833C22.4938 38.9409 22.8578 41.5617 23.5858 43.7457C24.3138 45.8933 25.2784 47.6587 26.4796 49.0419C27.7172 50.4251 29.1186 51.4443 30.6838 52.0995C32.2854 52.7547 33.9234 53.0823 35.5978 53.0823C37.163 53.0823 38.6372 52.8275 40.0204 52.3179C41.44 51.7719 42.6594 50.9893 43.6786 49.9701C44.7342 48.9509 45.5714 47.7315 46.1902 46.3119C46.809 44.8923 47.1184 43.2725 47.1184 41.4525C47.1184 39.6325 46.8636 38.0491 46.354 36.7023C45.8444 35.3555 45.1164 34.2453 44.17 33.3717ZM37.5819 44.8942L37.5827 44.8933C38.1333 44.3198 38.542 43.2685 38.542 41.4525C38.542 39.7378 38.1311 38.9156 37.685 38.5439L37.6631 38.5256L37.642 38.5065C37.0729 37.9868 36.3185 37.6893 35.2702 37.6893C34.6217 37.6893 33.9087 37.882 33.1153 38.3397L33.1083 38.3438L33.1013 38.3477C32.5208 38.6727 31.9244 39.2425 31.34 40.143C31.5098 41.2558 31.7405 42.1486 32.0175 42.841C32.3442 43.6578 32.7003 44.2799 33.0688 44.7375C33.429 45.1499 33.7827 45.4199 34.1224 45.5865C34.5488 45.7404 34.9839 45.8163 35.434 45.8163C36.2889 45.8163 36.9804 45.5218 37.5819 44.8942ZM33.6322 46.7487C33.0862 46.4939 32.5766 46.0935 32.1034 45.5475C31.6302 44.9651 31.2116 44.2189 30.8476 43.3089C30.4836 42.3989 30.2106 41.2523 30.0286 39.8691C30.7566 38.6315 31.5756 37.7579 32.4856 37.2483C33.432 36.7023 34.3602 36.4293 35.2702 36.4293C36.5806 36.4293 37.6544 36.8115 38.4916 37.5759C39.3652 38.3039 39.802 39.5961 39.802 41.4525C39.802 43.4181 39.3652 44.8559 38.4916 45.7659C37.6544 46.6395 36.6352 47.0763 35.434 47.0763C34.8152 47.0763 34.2146 46.9671 33.6322 46.7487Z" fill="#FF0716"/>
<path fill-rule="evenodd" clip-rule="evenodd" d="M30.202 53.2638L30.1973 53.2618C28.4435 52.5277 26.8913 51.3917 25.5406 49.8821L25.5344 49.8752L25.5283 49.8681C24.1976 48.3358 23.1609 46.4171 22.3925 44.1503L22.3904 44.1442C21.6082 41.7974 21.2338 39.0347 21.2338 35.8833C21.2338 32.5497 21.6265 29.61 22.4415 27.0876L22.4441 27.0792L22.4469 27.071C23.2852 24.594 24.3896 22.5002 25.7847 20.8261L25.7903 20.8193L25.7959 20.8128C27.216 19.156 28.8574 17.9062 30.7216 17.0946C32.5874 16.2618 34.5256 15.8409 36.526 15.8409C38.9672 15.8409 41.1488 16.286 43.0308 17.2248C44.8121 18.0778 46.3215 19.123 47.5325 20.3743L48.3389 21.2076L42.4584 27.9281L41.5068 26.9205C41.0132 26.3979 40.3463 25.9181 39.4738 25.498L39.457 25.4899L39.4404 25.4813C38.6211 25.0564 37.8177 24.8583 37.0174 24.8583C36.2374 24.8583 35.5173 25.0073 34.8444 25.2998C34.2444 25.5607 33.6632 26.022 33.1141 26.7531C32.612 27.4336 32.158 28.3931 31.7849 29.6817C31.6439 30.1686 31.5234 30.7052 31.4246 31.2929C31.8162 31.0319 32.2186 30.8026 32.632 30.6064C33.3172 30.2461 34.0166 29.9764 34.7293 29.8055C35.4319 29.6016 36.1237 29.4909 36.799 29.4909C38.4128 29.4909 39.92 29.727 41.3079 30.2161C42.7371 30.7068 43.9858 31.4508 45.0337 32.4543C46.1356 33.4742 46.9634 34.7526 47.5325 36.2564C48.1081 37.7778 48.3784 39.5187 48.3784 41.4525C48.3784 43.4158 48.0443 45.2116 47.3452 46.8154C46.6657 48.3743 45.7389 49.7303 44.5619 50.8688C43.4128 52.0157 42.0441 52.8896 40.4727 53.4939L40.4644 53.4972L40.456 53.5002C38.9249 54.0643 37.3024 54.3423 35.5978 54.3423C33.7543 54.3423 31.9546 53.9807 30.2067 53.2657L30.202 53.2638ZM44.17 33.3717C43.26 32.4981 42.168 31.8429 40.894 31.4061C39.6564 30.9693 38.2914 30.7509 36.799 30.7509C36.253 30.7509 35.6706 30.8419 35.0518 31.0239C34.433 31.1695 33.8142 31.4061 33.1954 31.7337C32.5766 32.0249 31.976 32.4071 31.3936 32.8803C31.3315 32.9269 31.2703 32.9743 31.2098 33.0225C30.7034 33.4266 30.2551 33.8888 29.8648 34.4091C29.8907 33.6985 29.9371 33.0269 30.0043 32.3943C30.1262 31.2445 30.3163 30.2236 30.5746 29.3313C30.975 27.9481 31.4846 26.8379 32.1034 26.0007C32.7586 25.1271 33.5048 24.5083 34.342 24.1443C35.1792 23.7803 36.071 23.5983 37.0174 23.5983C38.0366 23.5983 39.0376 23.8531 40.0204 24.3627C40.5603 24.6227 41.0452 24.91 41.4752 25.2249C41.828 25.4832 42.1439 25.76 42.4228 26.0553L46.627 21.2505C45.535 20.1221 44.1518 19.1575 42.4774 18.3567C40.803 17.5195 38.8192 17.1009 36.526 17.1009C34.706 17.1009 32.9406 17.4831 31.2298 18.2475C29.5554 18.9755 28.063 20.1039 26.7526 21.6327C25.4786 23.1615 24.4412 25.1089 23.6404 27.4749C22.876 29.8409 22.4938 32.6437 22.4938 35.8833C22.4938 38.9409 22.8578 41.5617 23.5858 43.7457C24.3138 45.8933 25.2784 47.6587 26.4796 49.0419C27.7172 50.4251 29.1186 51.4443 30.6838 52.0995C32.2854 52.7547 33.9234 53.0823 35.5978 53.0823C37.163 53.0823 38.6372 52.8275 40.0204 52.3179C41.44 51.7719 42.6594 50.9893 43.6786 49.9701C44.7342 48.9509 45.5714 47.7315 46.1902 46.3119C46.809 44.8923 47.1184 43.2725 47.1184 41.4525C47.1184 39.6325 46.8636 38.0491 46.354 36.7023C45.8444 35.3555 45.1164 34.2453 44.17 33.3717ZM37.5819 44.8942L37.5827 44.8933C38.1333 44.3198 38.542 43.2685 38.542 41.4525C38.542 39.7378 38.1311 38.9156 37.685 38.5439L37.6631 38.5256L37.642 38.5065C37.0729 37.9868 36.3185 37.6893 35.2702 37.6893C34.6217 37.6893 33.9087 37.882 33.1153 38.3397L33.1083 38.3438L33.1013 38.3477C32.5208 38.6727 31.9244 39.2425 31.34 40.143C31.5098 41.2558 31.7405 42.1486 32.0175 42.841C32.3442 43.6578 32.7003 44.2799 33.0688 44.7375C33.429 45.1499 33.7827 45.4199 34.1224 45.5865C34.5488 45.7404 34.9839 45.8163 35.434 45.8163C36.2889 45.8163 36.9804 45.5218 37.5819 44.8942ZM33.6322 46.7487C33.0862 46.4939 32.5766 46.0935 32.1034 45.5475C31.6302 44.9651 31.2116 44.2189 30.8476 43.3089C30.4836 42.3989 30.2106 41.2523 30.0286 39.8691C30.7566 38.6315 31.5756 37.7579 32.4856 37.2483C33.432 36.7023 34.3602 36.4293 35.2702 36.4293C36.5806 36.4293 37.6544 36.8115 38.4916 37.5759C39.3652 38.3039 39.802 39.5961 39.802 41.4525C39.802 43.4181 39.3652 44.8559 38.4916 45.7659C37.6544 46.6395 36.6352 47.0763 35.434 47.0763C34.8152 47.0763 34.2146 46.9671 33.6322 46.7487Z" stroke="black" stroke-width="2" mask="url(#path-2-outside-1_1_632)"/>
</g>
<defs>
<clipPath id="clip0_1_632">
<rect width="70" height="70" fill="white"/>
</clipPath>
</defs>
</svg>
